PathFileType	4	(X/Y/Z)	D:\Share\Shared_Data\Ergonomics\Sit To Stand Pertubation\S1\Perturbed_NoHarness.trc
DataRate	CameraRate	NumFrames	NumMarkers	Units	OrigDataRate	OrigDataStartFrame	OrigNumFrames	
100	100	9	18	m	100	9522	191
Frame#	Time	L_ASIS			R_ASIS			R_Pelvis			V_Sacral			L_Pelvis			Clavical			R_Acromium			L_Acromium			Sternum			Torso			R_Thigh_Med			R_Thigh_Lat			R_Thigh			R_Shank_Med			R_Shank_Lat			R_Shank			R_Heel			R_Toe			
		X1	Y1	Z1	X2	Y2	Z2	X3	Y3	Z3	X4	Y4	Z4	X5	Y5	Z5	X6	Y6	Z6	X7	Y7	Z7	X8	Y8	Z8	X9	Y9	Z9	X10	Y10	Z10	X11	Y11	Z11	X12	Y12	Z12	X13	Y13	Z13	X14	Y14	Z14	X15	Y15	Z15	X16	Y16	Z16	X17	Y17	Z17	X18	Y18	Z18	

9522	95.21	0.056881428	0.62770856	-0.10595879	0.042980591	0.61884558	0.10037502	-0.041060989	0.63647095	0.1302843	-0.15632175	0.5781181	0.00062221867	-0.042402378	0.63551862	-0.14244435	0.20538167	0.89279919	-0.0036635602	0.19662677	0.99588995	0.13748958	0.13639882	0.98031506	-0.19563597	0.20078407	0.919966	0.094579811	0.2092119	0.90726752	-0.059071266	0.32206601	0.42374597	0.029041845	0.30907773	0.43658023	0.15153812	0.18120284	0.55287854	0.10553273	0.34643799	0.09000914	0.10112288	0.32311176	0.09871003	0.17546451	0.31264539	0.31119775	0.17771655	0.28161075	0.042051796	0.13310468	0.48692023	0.048708046	0.13347408
9523	95.22	0.060048302	0.62653003	-0.10596725	0.045629913	0.61785437	0.1006201	-0.03811385	0.63743066	0.13061771	-0.15426126	0.58022186	0.00074306607	-0.038998817	0.6362804	-0.14152879	0.21594826	0.8872359	-0.0034948645	0.20964236	0.99148969	0.13703946	0.14916493	0.97779547	-0.1954079	0.21139075	0.915112	0.094380531	0.21977028	0.90245026	-0.058382568	0.31872043	0.41976846	0.030144014	0.30963495	0.43645917	0.15152362	0.18201598	0.5530343	0.10563444	0.345974	0.090986465	0.10046115	0.32304971	0.098643417	0.17560068	0.31317435	0.31116409	0.17779533	0.28152563	0.041921833	0.13321043	0.48687686	0.048828018	0.13357762
9524	95.23	0.063537098	0.62535077	-0.10601955	0.048558502	0.61688147	0.10088213	-0.034845383	0.63845734	0.13091179	-0.15186736	0.58252521	0.00083632946	-0.035220795	0.63710876	-0.14062849	0.22670435	0.88160339	-0.0033495352	0.22272609	0.98693903	0.13653862	0.16201784	0.9750929	-0.19520663	0.22209059	0.91013446	0.094137177	0.23042107	0.89749646	-0.05773539	0.31624469	0.41651559	0.031069481	0.3103685	0.43632324	0.15151953	0.183052	0.5532511	0.10570316	0.34559027	0.091824234	0.099884964	0.32303302	0.098570366	0.17574733	0.31384967	0.31112531	0.17788005	0.2814498	0.041798473	0.13332729	0.48684583	0.048985519	0.1336989
9525	95.24	0.067344162	0.62418744	-0.1061239	0.051769321	0.61593646	0.10115612	-0.031258036	0.63954449	0.13115887	-0.14912823	0.58500494	0.00089493597	-0.031071026	0.63799451	-0.13975467	0.23761452	0.8759541	-0.0032293475	0.23581039	0.98228503	0.13598273	0.17488435	0.97223022	-0.19502385	0.23284164	0.90507874	0.093852638	0.24111581	0.89244568	-0.05713588	0.31466177	0.41398749	0.031811758	0.31130499	0.43617236	0.15152092	0.18433763	0.5535274	0.10574087	0.34530615	0.092516739	0.099396378	0.32307153	0.098493256	0.17589915	0.31468878	0.31108194	0.17796339	0.28138675	0.041685303	0.13345241	0.48683087	0.049164803	0.13383313
9526	95.25	0.071458015	0.62305688	-0.10628669	0.055258919	0.61502625	0.10143599	-0.027362402	0.64068176	0.13135356	-0.14604031	0.5876283	0.00091305137	-0.026561937	0.63892474	-0.13891693	0.24863779	0.87034332	-0.003136677	0.24882608	0.97758014	0.13536765	0.18768854	0.96923553	-0.19485341	0.24360013	0.89999573	0.093530716	0.25180351	0.88734277	-0.056588745	0.31395377	0.41214273	0.032373272	0.31246964	0.43600623	0.151522	0.18589629	0.55385815	0.10575022	0.34513754	0.093063866	0.098992699	0.32317337	0.098414619	0.17605032	0.31570667	0.3110343	0.17803729	0.28133957	0.041584908	0.13358223	0.48683505	0.049350693	0.13397525
9527	95.26	0.07585997	0.6219754	-0.10651134	0.059017708	0.61415533	0.10171481	-0.023176737	0.64185474	0.13149265	-0.14260863	0.59035364	0.00088635957	-0.021715599	0.63988257	-0.13812358	0.25972714	0.86482812	-0.0030742099	0.26170358	0.97288062	0.13469083	0.20035289	0.96614178	-0.1946917	0.25432039	0.89494061	0.093176102	0.26243127	0.88223712	-0.056097363	0.31407059	0.41090729	0.032763405	0.31388577	0.43582455	0.15151639	0.18774753	0.55423425	0.105734	0.34509525	0.093470856	0.098666916	0.3233443	0.098337105	0.1761949	0.31691522	0.31098239	0.17809315	0.28131033	0.041498489	0.13371246	0.48686035	0.049529293	0.13412032
9528	95.27	0.080525238	0.62095734	-0.106797	0.063030563	0.61332629	0.10198534	-0.018726017	0.64304504	0.13157532	-0.13884633	0.59313129	0.000812235	-0.016562977	0.64084814	-0.13738179	0.27082953	0.8594657	-0.0030445416	0.27437424	0.96824487	0.13395235	0.21279962	0.96298596	-0.19453783	0.26495502	0.88997113	0.092794579	0.27294485	0.87718219	-0.055663902	0.31493936	0.41018506	0.032996284	0.31557401	0.43562692	0.15149756	0.18990654	0.55464355	0.10569473	0.34518481	0.093747581	0.09840847	0.32358731	0.09826329	0.17632707	0.31832278	0.31092596	0.17812244	0.28130023	0.041425533	0.13383804	0.48690756	0.049688477	0.13426364
9529	95.28	0.085424263	0.62001416	-0.10713725	0.067277771	0.61253979	0.10224035	-0.014040606	0.64423065	0.13160292	-0.1347738	0.59590662	0.0006898492	-0.011142625	0.64179974	-0.13669785	0.28188605	0.85431207	-0.003049752	0.28677173	0.96373224	0.13315633	0.22495207	0.95980829	-0.19439337	0.2754552	0.88514636	0.092392982	0.28329004	0.87223383	-0.055289585	0.31647433	0.4098681	0.033088604	0.31755139	0.43541263	0.15145892	0.19238399	0.55507135	0.10563444	0.34540598	0.093907486	0.098204239	0.32390277	0.098195564	0.1764413	0.3199342	0.31086441	0.17811699	0.28130948	0.041363605	0.13395306	0.48697635	0.049818233	0.134401
9530	95.29	0.090524529	0.61915417	-0.10751942	0.071736145	0.61179578	0.10247328	-0.0091545906	0.64538708	0.13157869	-0.13041759	0.59862244	0.00052025092	-0.0054988365	0.64271454	-0.13607721	0.29283249	0.84942035	-0.0030910282	0.29883298	0.95940131	0.13231161	0.23673653	0.95665112	-0.19426201	0.2857713	0.88052502	0.091979187	0.29341339	0.86744965	-0.054974876	0.31858557	0.40984628	0.033057812	0.31983115	0.43518063	0.15139424	0.1951861	0.55550177	0.1055545	0.34575317	0.093966362	0.098039703	0.32428842	0.098136017	0.17653264	0.32175073	0.31079681	0.17806963	0.28133725	0.041308189	0.13405078	0.48706512	0.049910774	0.1345289
